# Blender 4.0.2
# www.blender.org
mtllib BalaP5.mtl
o Círculo
v 0.000000 -0.010000 0.000000
v -0.001951 -0.009808 0.000000
v -0.003827 -0.009239 0.000000
v -0.005556 -0.008315 0.000000
v -0.007071 -0.007071 0.000000
v -0.008315 -0.005556 0.000000
v -0.009239 -0.003827 0.000000
v -0.009808 -0.001951 0.000000
v -0.010000 0.000000 0.000000
v -0.009808 0.001951 0.000000
v -0.009239 0.003827 0.000000
v -0.008315 0.005556 0.000000
v -0.007071 0.007071 0.000000
v -0.005556 0.008315 0.000000
v -0.003827 0.009239 0.000000
v -0.001951 0.009808 0.000000
v 0.000000 0.010000 0.000000
v 0.001951 0.009808 0.000000
v 0.003827 0.009239 0.000000
v 0.005556 0.008315 0.000000
v 0.007071 0.007071 0.000000
v 0.008315 0.005556 0.000000
v 0.009239 0.003827 0.000000
v 0.009808 0.001951 0.000000
v 0.010000 0.000000 0.000000
v 0.009808 -0.001951 0.000000
v 0.009239 -0.003827 0.000000
v 0.008315 -0.005556 0.000000
v 0.007071 -0.007071 0.000000
v 0.005556 -0.008315 0.000000
v 0.003827 -0.009239 0.000000
v 0.001951 -0.009808 0.000000
v -0.001699 -0.008542 -0.002211
v 0.000000 -0.008710 -0.002211
v -0.003333 -0.008047 -0.002211
v -0.004839 -0.007242 -0.002211
v -0.006159 -0.006159 -0.002211
v -0.007242 -0.004839 -0.002211
v -0.008047 -0.003333 -0.002211
v -0.008542 -0.001699 -0.002211
v -0.008710 0.000000 -0.002211
v -0.008542 0.001699 -0.002211
v -0.008047 0.003333 -0.002211
v -0.007242 0.004839 -0.002211
v -0.006159 0.006159 -0.002211
v -0.004839 0.007242 -0.002211
v -0.003333 0.008047 -0.002211
v -0.001699 0.008542 -0.002211
v 0.000000 0.008710 -0.002211
v 0.001699 0.008542 -0.002211
v 0.003333 0.008047 -0.002211
v 0.004839 0.007242 -0.002211
v 0.006159 0.006159 -0.002211
v 0.007242 0.004839 -0.002211
v 0.008047 0.003333 -0.002211
v 0.008542 0.001699 -0.002211
v 0.008710 0.000000 -0.002211
v 0.008542 -0.001699 -0.002211
v 0.008047 -0.003333 -0.002211
v 0.007242 -0.004839 -0.002211
v 0.006159 -0.006159 -0.002211
v 0.004839 -0.007242 -0.002211
v 0.003333 -0.008047 -0.002211
v 0.001699 -0.008542 -0.002211
v -0.001951 -0.009808 -0.002211
v 0.000000 -0.010000 -0.002211
v -0.003827 -0.009239 -0.002211
v -0.005556 -0.008315 -0.002211
v -0.007071 -0.007071 -0.002211
v -0.008315 -0.005556 -0.002211
v -0.009239 -0.003827 -0.002211
v -0.009808 -0.001951 -0.002211
v -0.010000 0.000000 -0.002211
v -0.009808 0.001951 -0.002211
v -0.009239 0.003827 -0.002211
v -0.008315 0.005556 -0.002211
v -0.007071 0.007071 -0.002211
v -0.005556 0.008315 -0.002211
v -0.003827 0.009239 -0.002211
v -0.001951 0.009808 -0.002211
v 0.000000 0.010000 -0.002211
v 0.001951 0.009808 -0.002211
v 0.003827 0.009239 -0.002211
v 0.005556 0.008315 -0.002211
v 0.007071 0.007071 -0.002211
v 0.008315 0.005556 -0.002211
v 0.009239 0.003827 -0.002211
v 0.009808 0.001951 -0.002211
v 0.010000 0.000000 -0.002211
v 0.009808 -0.001951 -0.002211
v 0.009239 -0.003827 -0.002211
v 0.008315 -0.005556 -0.002211
v 0.007071 -0.007071 -0.002211
v 0.005556 -0.008315 -0.002211
v 0.003827 -0.009239 -0.002211
v 0.001951 -0.009808 -0.002211
v -0.001699 -0.008542 -0.004632
v 0.000000 -0.008710 -0.004632
v -0.003333 -0.008047 -0.004632
v -0.004839 -0.007242 -0.004632
v -0.006159 -0.006159 -0.004632
v -0.007242 -0.004839 -0.004632
v -0.008047 -0.003333 -0.004632
v -0.008542 -0.001699 -0.004632
v -0.008710 0.000000 -0.004632
v -0.008542 0.001699 -0.004632
v -0.008047 0.003333 -0.004632
v -0.007242 0.004839 -0.004632
v -0.006159 0.006159 -0.004632
v -0.004839 0.007242 -0.004632
v -0.003333 0.008047 -0.004632
v -0.001699 0.008542 -0.004632
v 0.000000 0.008710 -0.004632
v 0.001699 0.008542 -0.004632
v 0.003333 0.008047 -0.004632
v 0.004839 0.007242 -0.004632
v 0.006159 0.006159 -0.004632
v 0.007242 0.004839 -0.004632
v 0.008047 0.003333 -0.004632
v 0.008542 0.001699 -0.004632
v 0.008710 0.000000 -0.004632
v 0.008542 -0.001699 -0.004632
v 0.008047 -0.003333 -0.004632
v 0.007242 -0.004839 -0.004632
v 0.006159 -0.006159 -0.004632
v 0.004839 -0.007242 -0.004632
v 0.003333 -0.008047 -0.004632
v 0.001699 -0.008542 -0.004632
v -0.001937 -0.009738 -0.006986
v 0.000000 -0.009929 -0.006986
v -0.003800 -0.009173 -0.006986
v -0.005516 -0.008256 -0.006986
v -0.007021 -0.007021 -0.006986
v -0.008256 -0.005516 -0.006986
v -0.009173 -0.003800 -0.006986
v -0.009738 -0.001937 -0.006986
v -0.009929 0.000000 -0.006986
v -0.009738 0.001937 -0.006986
v -0.009173 0.003800 -0.006986
v -0.008256 0.005516 -0.006986
v -0.007021 0.007021 -0.006986
v -0.005516 0.008256 -0.006986
v -0.003800 0.009173 -0.006986
v -0.001937 0.009738 -0.006986
v 0.000000 0.009929 -0.006986
v 0.001937 0.009738 -0.006986
v 0.003800 0.009173 -0.006986
v 0.005516 0.008256 -0.006986
v 0.007021 0.007021 -0.006986
v 0.008256 0.005516 -0.006986
v 0.009173 0.003800 -0.006986
v 0.009738 0.001937 -0.006986
v 0.009929 0.000000 -0.006986
v 0.009738 -0.001937 -0.006986
v 0.009173 -0.003800 -0.006986
v 0.008256 -0.005516 -0.006986
v 0.007021 -0.007021 -0.006986
v 0.005516 -0.008256 -0.006986
v 0.003800 -0.009173 -0.006986
v 0.001937 -0.009738 -0.006986
v -0.001861 -0.009356 -0.042256
v 0.000000 -0.009539 -0.042256
v -0.003650 -0.008813 -0.042256
v -0.005300 -0.007931 -0.042256
v -0.006745 -0.006745 -0.042256
v -0.007931 -0.005300 -0.042256
v -0.008813 -0.003650 -0.042256
v -0.009356 -0.001861 -0.042256
v -0.009539 0.000000 -0.042256
v -0.009356 0.001861 -0.042256
v -0.008813 0.003650 -0.042256
v -0.007931 0.005300 -0.042256
v -0.006745 0.006745 -0.042256
v -0.005300 0.007931 -0.042256
v -0.003650 0.008813 -0.042256
v -0.001861 0.009356 -0.042256
v 0.000000 0.009539 -0.042256
v 0.001861 0.009356 -0.042256
v 0.003650 0.008813 -0.042256
v 0.005300 0.007931 -0.042256
v 0.006745 0.006745 -0.042256
v 0.007931 0.005300 -0.042256
v 0.008813 0.003650 -0.042256
v 0.009356 0.001861 -0.042256
v 0.009539 0.000000 -0.042256
v 0.009356 -0.001861 -0.042256
v 0.008813 -0.003650 -0.042256
v 0.007931 -0.005300 -0.042256
v 0.006745 -0.006745 -0.042256
v 0.005300 -0.007931 -0.042256
v 0.003650 -0.008813 -0.042256
v 0.001861 -0.009356 -0.042256
v -0.001937 -0.009738 -0.042256
v 0.000000 -0.009929 -0.042256
v -0.003800 -0.009173 -0.042256
v -0.005516 -0.008256 -0.042256
v -0.007021 -0.007021 -0.042256
v -0.008256 -0.005516 -0.042256
v -0.009173 -0.003800 -0.042256
v -0.009738 -0.001937 -0.042256
v -0.009929 0.000000 -0.042256
v -0.009738 0.001937 -0.042256
v -0.009173 0.003800 -0.042256
v -0.008256 0.005516 -0.042256
v -0.007021 0.007021 -0.042256
v -0.005516 0.008256 -0.042256
v -0.003800 0.009173 -0.042256
v -0.001937 0.009738 -0.042256
v 0.000000 0.009929 -0.042256
v 0.001937 0.009738 -0.042256
v 0.003800 0.009173 -0.042256
v 0.005516 0.008256 -0.042256
v 0.007021 0.007021 -0.042256
v 0.008256 0.005516 -0.042256
v 0.009173 0.003800 -0.042256
v 0.009738 0.001937 -0.042256
v 0.009929 0.000000 -0.042256
v 0.009738 -0.001937 -0.042256
v 0.009173 -0.003800 -0.042256
v 0.008256 -0.005516 -0.042256
v 0.007021 -0.007021 -0.042256
v 0.005516 -0.008256 -0.042256
v 0.003800 -0.009173 -0.042256
v 0.001937 -0.009738 -0.042256
v 0.000002 -0.000011 -0.057482
v 0.000469 -0.002359 -0.055100
v 0.000004 -0.000011 -0.057482
v 0.000920 -0.002222 -0.055100
v 0.000006 -0.000010 -0.057482
v 0.001336 -0.002000 -0.055100
v 0.000008 -0.000008 -0.057482
v 0.001701 -0.001701 -0.055100
v 0.000010 -0.000006 -0.057482
v 0.002000 -0.001336 -0.055100
v 0.000011 -0.000004 -0.057482
v 0.002222 -0.000920 -0.055100
v 0.000011 -0.000002 -0.057482
v 0.002359 -0.000469 -0.055100
v 0.000012 0.000000 -0.057482
v 0.002405 0.000000 -0.055100
v 0.000011 0.000002 -0.057482
v 0.002359 0.000469 -0.055100
v 0.000011 0.000004 -0.057482
v 0.002222 0.000920 -0.055100
v 0.000010 0.000006 -0.057482
v 0.002000 0.001336 -0.055100
v 0.000008 0.000008 -0.057482
v 0.001701 0.001701 -0.055100
v 0.000006 0.000010 -0.057482
v 0.001336 0.002000 -0.055100
v 0.000004 0.000011 -0.057482
v 0.000920 0.002222 -0.055100
v 0.000002 0.000011 -0.057482
v 0.000469 0.002359 -0.055100
v 0.000000 0.000012 -0.057482
v 0.000000 0.002405 -0.055100
v -0.000002 0.000011 -0.057482
v -0.000469 0.002359 -0.055100
v -0.000004 0.000011 -0.057482
v -0.000920 0.002222 -0.055100
v -0.000006 0.000010 -0.057482
v -0.001336 0.002000 -0.055100
v -0.000008 0.000008 -0.057482
v -0.001701 0.001701 -0.055100
v -0.000010 0.000006 -0.057482
v -0.002000 0.001336 -0.055100
v -0.000011 0.000004 -0.057482
v -0.002222 0.000920 -0.055100
v -0.000011 0.000002 -0.057482
v -0.002359 0.000469 -0.055100
v -0.000012 0.000000 -0.057482
v -0.002405 0.000000 -0.055100
v -0.000011 -0.000002 -0.057482
v -0.002359 -0.000469 -0.055100
v -0.000011 -0.000004 -0.057482
v -0.002222 -0.000920 -0.055100
v -0.000010 -0.000006 -0.057482
v -0.002000 -0.001336 -0.055100
v -0.000008 -0.000008 -0.057482
v -0.001701 -0.001701 -0.055100
v -0.000006 -0.000010 -0.057482
v -0.001336 -0.002000 -0.055100
v -0.000004 -0.000011 -0.057482
v -0.000920 -0.002222 -0.055100
v 0.000000 -0.000012 -0.057482
v 0.000000 -0.002405 -0.055100
v -0.000002 -0.000011 -0.057482
v -0.000469 -0.002359 -0.055100
vn -0.0000 -0.0000 1.0000
vn 0.7730 0.6344 -0.0000
vn 0.6344 -0.7730 -0.0000
vn -0.0980 0.9952 -0.0000
vn -0.4714 -0.8819 -0.0000
vn 0.4714 -0.8819 -0.0000
vn 0.0980 0.9952 -0.0000
vn -0.6344 -0.7730 -0.0000
vn 0.2903 -0.9569 -0.0000
vn 0.2903 0.9569 -0.0000
vn -0.7730 -0.6344 -0.0000
vn 0.0980 -0.9952 -0.0000
vn 0.4714 0.8819 -0.0000
vn -0.8819 -0.4714 -0.0000
vn 0.6344 0.7730 -0.0000
vn -0.9569 -0.2903 -0.0000
vn -0.9952 -0.0980 -0.0000
vn 0.8819 0.4714 -0.0000
vn -0.9952 0.0980 -0.0000
vn 0.9569 0.2903 -0.0000
vn -0.9569 0.2903 -0.0000
vn 0.9952 0.0980 -0.0000
vn -0.8819 0.4714 -0.0000
vn 0.9952 -0.0980 -0.0000
vn -0.7730 0.6344 -0.0000
vn 0.9569 -0.2903 -0.0000
vn -0.6344 0.7730 -0.0000
vn 0.8819 -0.4714 -0.0000
vn -0.4714 0.8819 -0.0000
vn -0.0980 -0.9952 -0.0000
vn 0.7730 -0.6344 -0.0000
vn -0.2903 0.9569 -0.0000
vn -0.2903 -0.9569 -0.0000
vn -0.0000 -0.0000 -1.0000
vn 0.8846 0.0871 0.4582
vn -0.7839 0.4190 0.4582
vn 0.8846 -0.0871 0.4582
vn -0.6871 0.5639 0.4582
vn 0.8506 -0.2580 0.4582
vn -0.5639 0.6871 0.4582
vn 0.7839 -0.4190 0.4582
vn -0.4190 0.7839 0.4582
vn -0.0871 -0.8846 0.4582
vn 0.6871 -0.5639 0.4582
vn -0.2580 0.8506 0.4582
vn -0.2580 -0.8506 0.4582
vn 0.5639 -0.6871 0.4582
vn -0.0871 0.8846 0.4582
vn -0.4190 -0.7839 0.4582
vn 0.4190 -0.7839 0.4582
vn 0.0871 0.8846 0.4582
vn -0.5639 -0.6871 0.4582
vn 0.2580 -0.8506 0.4582
vn 0.2580 0.8506 0.4582
vn -0.6871 -0.5639 0.4582
vn 0.0871 -0.8846 0.4582
vn 0.4190 0.7839 0.4582
vn -0.7839 -0.4190 0.4582
vn 0.5639 0.6871 0.4582
vn -0.8506 -0.2580 0.4582
vn 0.6871 0.5639 0.4582
vn -0.8846 -0.0871 0.4582
vn 0.7839 0.4190 0.4582
vn -0.8846 0.0871 0.4582
vn 0.8506 0.2580 0.4582
vn -0.8506 0.2580 0.4582
vn 0.7718 -0.4126 -0.4838
vn -0.4126 0.7718 -0.4838
vn -0.5552 0.6765 -0.4838
vn 0.8375 -0.2541 -0.4838
vn -0.6765 0.5552 -0.4838
vn 0.8710 -0.0858 -0.4838
vn -0.7718 0.4126 -0.4838
vn 0.8710 0.0858 -0.4838
vn -0.8375 0.2541 -0.4838
vn 0.8375 0.2541 -0.4838
vn -0.8710 0.0858 -0.4838
vn 0.7718 0.4126 -0.4838
vn -0.8710 -0.0858 -0.4838
vn 0.6765 0.5552 -0.4838
vn -0.8375 -0.2541 -0.4838
vn 0.5552 0.6765 -0.4838
vn -0.7718 -0.4126 -0.4838
vn 0.4126 0.7718 -0.4838
vn -0.6765 -0.5552 -0.4838
vn 0.2541 0.8375 -0.4838
vn -0.0000 0.0001 -1.0000
vn -0.5552 -0.6765 -0.4838
vn 0.0858 0.8710 -0.4838
vn 0.0858 -0.8710 -0.4838
vn -0.4126 -0.7718 -0.4838
vn -0.0858 0.8710 -0.4838
vn 0.5552 -0.6765 -0.4838
vn -0.2541 -0.8375 -0.4838
vn -0.2541 0.8375 -0.4838
vn 0.6765 -0.5552 -0.4838
vn 0.4126 -0.7718 -0.4838
vn -0.0858 -0.8710 -0.4838
vn 0.0693 -0.7037 -0.7071
vn 0.2053 -0.6767 -0.7071
vn 0.3333 -0.6236 -0.7071
vn 0.4486 -0.5466 -0.7071
vn 0.5466 -0.4486 -0.7071
vn 0.6236 -0.3333 -0.7071
vn 0.6767 -0.2053 -0.7071
vn 0.7037 -0.0693 -0.7071
vn 0.7037 0.0693 -0.7071
vn 0.6767 0.2053 -0.7071
vn 0.6236 0.3333 -0.7071
vn 0.5466 0.4486 -0.7071
vn 0.4486 0.5466 -0.7071
vn 0.3333 0.6236 -0.7071
vn 0.2053 0.6767 -0.7071
vn 0.0693 0.7037 -0.7071
vn -0.0693 0.7037 -0.7071
vn -0.2053 0.6767 -0.7071
vn -0.3333 0.6236 -0.7071
vn -0.4486 0.5466 -0.7071
vn -0.5466 0.4486 -0.7071
vn -0.6236 0.3333 -0.7071
vn -0.6767 0.2053 -0.7071
vn -0.7037 0.0693 -0.7071
vn -0.7037 -0.0693 -0.7071
vn -0.6767 -0.2053 -0.7071
vn -0.6236 -0.3333 -0.7071
vn -0.5466 -0.4486 -0.7071
vn -0.4486 -0.5466 -0.7071
vn -0.3333 -0.6236 -0.7071
vn -0.2053 -0.6767 -0.7071
vn -0.0693 -0.7037 -0.7071
vn 0.2541 -0.8375 -0.4838
vt 0.000000 0.000000
s 0
usemtl Metal
f 2/1/1 1/1/1 32/1/1 31/1/1 30/1/1 29/1/1 28/1/1 27/1/1 26/1/1 25/1/1 24/1/1 23/1/1 22/1/1 21/1/1 20/1/1 19/1/1 18/1/1 17/1/1 16/1/1 15/1/1 14/1/1 13/1/1 12/1/1 11/1/1 10/1/1 9/1/1 8/1/1 7/1/1 6/1/1 5/1/1 4/1/1 3/1/1
f 53/1/2 54/1/2 118/1/2 117/1/2
f 29/1/3 30/1/3 94/1/3 93/1/3
f 16/1/4 17/1/4 81/1/4 80/1/4
f 3/1/5 4/1/5 68/1/5 67/1/5
f 30/1/6 31/1/6 95/1/6 94/1/6
f 17/1/7 18/1/7 82/1/7 81/1/7
f 4/1/8 5/1/8 69/1/8 68/1/8
f 31/1/9 32/1/9 96/1/9 95/1/9
f 18/1/10 19/1/10 83/1/10 82/1/10
f 5/1/11 6/1/11 70/1/11 69/1/11
f 32/1/12 1/1/12 66/1/12 96/1/12
f 19/1/13 20/1/13 84/1/13 83/1/13
f 6/1/14 7/1/14 71/1/14 70/1/14
f 20/1/15 21/1/15 85/1/15 84/1/15
f 7/1/16 8/1/16 72/1/16 71/1/16
f 21/1/2 22/1/2 86/1/2 85/1/2
f 8/1/17 9/1/17 73/1/17 72/1/17
f 22/1/18 23/1/18 87/1/18 86/1/18
f 9/1/19 10/1/19 74/1/19 73/1/19
f 23/1/20 24/1/20 88/1/20 87/1/20
f 10/1/21 11/1/21 75/1/21 74/1/21
f 24/1/22 25/1/22 89/1/22 88/1/22
f 11/1/23 12/1/23 76/1/23 75/1/23
f 25/1/24 26/1/24 90/1/24 89/1/24
f 12/1/25 13/1/25 77/1/25 76/1/25
f 26/1/26 27/1/26 91/1/26 90/1/26
f 13/1/27 14/1/27 78/1/27 77/1/27
f 27/1/28 28/1/28 92/1/28 91/1/28
f 14/1/29 15/1/29 79/1/29 78/1/29
f 1/1/30 2/1/30 65/1/30 66/1/30
f 28/1/31 29/1/31 93/1/31 92/1/31
f 15/1/32 16/1/32 80/1/32 79/1/32
f 2/1/33 3/1/33 67/1/33 65/1/33
f 33/1/34 34/1/34 66/1/34 65/1/34
f 35/1/34 33/1/34 65/1/34 67/1/34
f 36/1/34 35/1/34 67/1/34 68/1/34
f 37/1/34 36/1/34 68/1/34 69/1/34
f 38/1/34 37/1/34 69/1/34 70/1/34
f 39/1/34 38/1/34 70/1/34 71/1/34
f 40/1/34 39/1/34 71/1/34 72/1/34
f 41/1/34 40/1/34 72/1/34 73/1/34
f 42/1/34 41/1/34 73/1/34 74/1/34
f 43/1/34 42/1/34 74/1/34 75/1/34
f 44/1/34 43/1/34 75/1/34 76/1/34
f 45/1/34 44/1/34 76/1/34 77/1/34
f 46/1/34 45/1/34 77/1/34 78/1/34
f 47/1/34 46/1/34 78/1/34 79/1/34
f 48/1/34 47/1/34 79/1/34 80/1/34
f 49/1/34 48/1/34 80/1/34 81/1/34
f 50/1/34 49/1/34 81/1/34 82/1/34
f 51/1/34 50/1/34 82/1/34 83/1/34
f 52/1/34 51/1/34 83/1/34 84/1/34
f 53/1/34 52/1/34 84/1/34 85/1/34
f 54/1/34 53/1/34 85/1/34 86/1/34
f 55/1/34 54/1/34 86/1/34 87/1/34
f 56/1/34 55/1/34 87/1/34 88/1/34
f 57/1/34 56/1/34 88/1/34 89/1/34
f 58/1/34 57/1/34 89/1/34 90/1/34
f 59/1/34 58/1/34 90/1/34 91/1/34
f 60/1/34 59/1/34 91/1/34 92/1/34
f 61/1/34 60/1/34 92/1/34 93/1/34
f 62/1/34 61/1/34 93/1/34 94/1/34
f 63/1/34 62/1/34 94/1/34 95/1/34
f 64/1/34 63/1/34 95/1/34 96/1/34
f 34/1/34 64/1/34 96/1/34 66/1/34
f 120/1/35 121/1/35 153/1/35 152/1/35
f 40/1/17 41/1/17 105/1/17 104/1/17
f 54/1/18 55/1/18 119/1/18 118/1/18
f 41/1/19 42/1/19 106/1/19 105/1/19
f 55/1/20 56/1/20 120/1/20 119/1/20
f 42/1/21 43/1/21 107/1/21 106/1/21
f 56/1/22 57/1/22 121/1/22 120/1/22
f 43/1/23 44/1/23 108/1/23 107/1/23
f 57/1/24 58/1/24 122/1/24 121/1/24
f 44/1/25 45/1/25 109/1/25 108/1/25
f 58/1/26 59/1/26 123/1/26 122/1/26
f 45/1/27 46/1/27 110/1/27 109/1/27
f 59/1/28 60/1/28 124/1/28 123/1/28
f 46/1/29 47/1/29 111/1/29 110/1/29
f 34/1/30 33/1/30 97/1/30 98/1/30
f 60/1/31 61/1/31 125/1/31 124/1/31
f 47/1/32 48/1/32 112/1/32 111/1/32
f 33/1/33 35/1/33 99/1/33 97/1/33
f 61/1/3 62/1/3 126/1/3 125/1/3
f 48/1/4 49/1/4 113/1/4 112/1/4
f 35/1/5 36/1/5 100/1/5 99/1/5
f 62/1/6 63/1/6 127/1/6 126/1/6
f 49/1/7 50/1/7 114/1/7 113/1/7
f 36/1/8 37/1/8 101/1/8 100/1/8
f 63/1/9 64/1/9 128/1/9 127/1/9
f 50/1/10 51/1/10 115/1/10 114/1/10
f 37/1/11 38/1/11 102/1/11 101/1/11
f 64/1/12 34/1/12 98/1/12 128/1/12
f 51/1/13 52/1/13 116/1/13 115/1/13
f 38/1/14 39/1/14 103/1/14 102/1/14
f 52/1/15 53/1/15 117/1/15 116/1/15
f 39/1/16 40/1/16 104/1/16 103/1/16
f 155/1/28 156/1/28 220/1/28 219/1/28
f 107/1/36 108/1/36 140/1/36 139/1/36
f 121/1/37 122/1/37 154/1/37 153/1/37
f 108/1/38 109/1/38 141/1/38 140/1/38
f 122/1/39 123/1/39 155/1/39 154/1/39
f 109/1/40 110/1/40 142/1/40 141/1/40
f 123/1/41 124/1/41 156/1/41 155/1/41
f 110/1/42 111/1/42 143/1/42 142/1/42
f 98/1/43 97/1/43 129/1/43 130/1/43
f 124/1/44 125/1/44 157/1/44 156/1/44
f 111/1/45 112/1/45 144/1/45 143/1/45
f 97/1/46 99/1/46 131/1/46 129/1/46
f 125/1/47 126/1/47 158/1/47 157/1/47
f 112/1/48 113/1/48 145/1/48 144/1/48
f 99/1/49 100/1/49 132/1/49 131/1/49
f 126/1/50 127/1/50 159/1/50 158/1/50
f 113/1/51 114/1/51 146/1/51 145/1/51
f 100/1/52 101/1/52 133/1/52 132/1/52
f 127/1/53 128/1/53 160/1/53 159/1/53
f 114/1/54 115/1/54 147/1/54 146/1/54
f 101/1/55 102/1/55 134/1/55 133/1/55
f 128/1/56 98/1/56 130/1/56 160/1/56
f 115/1/57 116/1/57 148/1/57 147/1/57
f 102/1/58 103/1/58 135/1/58 134/1/58
f 116/1/59 117/1/59 149/1/59 148/1/59
f 103/1/60 104/1/60 136/1/60 135/1/60
f 117/1/61 118/1/61 150/1/61 149/1/61
f 104/1/62 105/1/62 137/1/62 136/1/62
f 118/1/63 119/1/63 151/1/63 150/1/63
f 105/1/64 106/1/64 138/1/64 137/1/64
f 119/1/65 120/1/65 152/1/65 151/1/65
f 106/1/66 107/1/66 139/1/66 138/1/66
f 187/1/67 188/1/67 234/1/67 236/1/67
f 142/1/29 143/1/29 207/1/29 206/1/29
f 130/1/30 129/1/30 193/1/30 194/1/30
f 156/1/31 157/1/31 221/1/31 220/1/31
f 143/1/32 144/1/32 208/1/32 207/1/32
f 129/1/33 131/1/33 195/1/33 193/1/33
f 157/1/3 158/1/3 222/1/3 221/1/3
f 144/1/4 145/1/4 209/1/4 208/1/4
f 131/1/5 132/1/5 196/1/5 195/1/5
f 158/1/6 159/1/6 223/1/6 222/1/6
f 145/1/7 146/1/7 210/1/7 209/1/7
f 132/1/8 133/1/8 197/1/8 196/1/8
f 159/1/9 160/1/9 224/1/9 223/1/9
f 146/1/10 147/1/10 211/1/10 210/1/10
f 133/1/11 134/1/11 198/1/11 197/1/11
f 160/1/12 130/1/12 194/1/12 224/1/12
f 147/1/13 148/1/13 212/1/13 211/1/13
f 134/1/14 135/1/14 199/1/14 198/1/14
f 148/1/15 149/1/15 213/1/15 212/1/15
f 135/1/16 136/1/16 200/1/16 199/1/16
f 149/1/2 150/1/2 214/1/2 213/1/2
f 136/1/17 137/1/17 201/1/17 200/1/17
f 150/1/18 151/1/18 215/1/18 214/1/18
f 137/1/19 138/1/19 202/1/19 201/1/19
f 151/1/20 152/1/20 216/1/20 215/1/20
f 138/1/21 139/1/21 203/1/21 202/1/21
f 152/1/22 153/1/22 217/1/22 216/1/22
f 139/1/23 140/1/23 204/1/23 203/1/23
f 153/1/24 154/1/24 218/1/24 217/1/24
f 140/1/25 141/1/25 205/1/25 204/1/25
f 154/1/26 155/1/26 219/1/26 218/1/26
f 141/1/27 142/1/27 206/1/27 205/1/27
f 161/1/34 162/1/34 194/1/34 193/1/34
f 163/1/34 161/1/34 193/1/34 195/1/34
f 164/1/34 163/1/34 195/1/34 196/1/34
f 165/1/34 164/1/34 196/1/34 197/1/34
f 166/1/34 165/1/34 197/1/34 198/1/34
f 167/1/34 166/1/34 198/1/34 199/1/34
f 168/1/34 167/1/34 199/1/34 200/1/34
f 169/1/34 168/1/34 200/1/34 201/1/34
f 170/1/34 169/1/34 201/1/34 202/1/34
f 171/1/34 170/1/34 202/1/34 203/1/34
f 172/1/34 171/1/34 203/1/34 204/1/34
f 173/1/34 172/1/34 204/1/34 205/1/34
f 174/1/34 173/1/34 205/1/34 206/1/34
f 175/1/34 174/1/34 206/1/34 207/1/34
f 176/1/34 175/1/34 207/1/34 208/1/34
f 177/1/34 176/1/34 208/1/34 209/1/34
f 178/1/34 177/1/34 209/1/34 210/1/34
f 179/1/34 178/1/34 210/1/34 211/1/34
f 180/1/34 179/1/34 211/1/34 212/1/34
f 181/1/34 180/1/34 212/1/34 213/1/34
f 182/1/34 181/1/34 213/1/34 214/1/34
f 183/1/34 182/1/34 214/1/34 215/1/34
f 184/1/34 183/1/34 215/1/34 216/1/34
f 185/1/34 184/1/34 216/1/34 217/1/34
f 186/1/34 185/1/34 217/1/34 218/1/34
f 187/1/34 186/1/34 218/1/34 219/1/34
f 188/1/34 187/1/34 219/1/34 220/1/34
f 189/1/34 188/1/34 220/1/34 221/1/34
f 190/1/34 189/1/34 221/1/34 222/1/34
f 191/1/34 190/1/34 222/1/34 223/1/34
f 192/1/34 191/1/34 223/1/34 224/1/34
f 162/1/34 192/1/34 224/1/34 194/1/34
f 174/1/68 175/1/68 260/1/68 262/1/68
f 173/1/69 174/1/69 262/1/69 264/1/69
f 186/1/70 187/1/70 236/1/70 238/1/70
f 172/1/71 173/1/71 264/1/71 266/1/71
f 185/1/72 186/1/72 238/1/72 240/1/72
f 171/1/73 172/1/73 266/1/73 268/1/73
f 184/1/74 185/1/74 240/1/74 242/1/74
f 170/1/75 171/1/75 268/1/75 270/1/75
f 183/1/76 184/1/76 242/1/76 244/1/76
f 169/1/77 170/1/77 270/1/77 272/1/77
f 182/1/78 183/1/78 244/1/78 246/1/78
f 168/1/79 169/1/79 272/1/79 274/1/79
f 181/1/80 182/1/80 246/1/80 248/1/80
f 167/1/81 168/1/81 274/1/81 276/1/81
f 180/1/82 181/1/82 248/1/82 250/1/82
f 166/1/83 167/1/83 276/1/83 278/1/83
f 179/1/84 180/1/84 250/1/84 252/1/84
f 165/1/85 166/1/85 278/1/85 280/1/85
f 178/1/86 179/1/86 252/1/86 254/1/86
f 287/1/87 283/1/87 281/1/87 279/1/87 277/1/87 275/1/87 273/1/87 271/1/87 269/1/87 267/1/87 265/1/87 263/1/87 261/1/87 259/1/87 257/1/87 255/1/87 253/1/87 251/1/87 249/1/87 247/1/87 245/1/87 243/1/87 241/1/87 239/1/87 237/1/87 235/1/87 233/1/87 231/1/87 229/1/87 227/1/87 225/1/87 285/1/87
f 164/1/88 165/1/88 280/1/88 282/1/88
f 177/1/89 178/1/89 254/1/89 256/1/89
f 192/1/90 162/1/90 286/1/90 226/1/90
f 163/1/91 164/1/91 282/1/91 284/1/91
f 176/1/92 177/1/92 256/1/92 258/1/92
f 189/1/93 190/1/93 230/1/93 232/1/93
f 161/1/94 163/1/94 284/1/94 288/1/94
f 175/1/95 176/1/95 258/1/95 260/1/95
f 188/1/96 189/1/96 232/1/96 234/1/96
f 190/1/97 191/1/97 228/1/97 230/1/97
f 162/1/98 161/1/98 288/1/98 286/1/98
f 285/1/99 225/1/99 226/1/99 286/1/99
f 225/1/100 227/1/100 228/1/100 226/1/100
f 227/1/101 229/1/101 230/1/101 228/1/101
f 229/1/102 231/1/102 232/1/102 230/1/102
f 231/1/103 233/1/103 234/1/103 232/1/103
f 233/1/104 235/1/104 236/1/104 234/1/104
f 235/1/105 237/1/105 238/1/105 236/1/105
f 237/1/106 239/1/106 240/1/106 238/1/106
f 239/1/107 241/1/107 242/1/107 240/1/107
f 241/1/108 243/1/108 244/1/108 242/1/108
f 243/1/109 245/1/109 246/1/109 244/1/109
f 245/1/110 247/1/110 248/1/110 246/1/110
f 247/1/111 249/1/111 250/1/111 248/1/111
f 249/1/112 251/1/112 252/1/112 250/1/112
f 251/1/113 253/1/113 254/1/113 252/1/113
f 253/1/114 255/1/114 256/1/114 254/1/114
f 255/1/115 257/1/115 258/1/115 256/1/115
f 257/1/116 259/1/116 260/1/116 258/1/116
f 259/1/117 261/1/117 262/1/117 260/1/117
f 261/1/118 263/1/118 264/1/118 262/1/118
f 263/1/119 265/1/119 266/1/119 264/1/119
f 265/1/120 267/1/120 268/1/120 266/1/120
f 267/1/121 269/1/121 270/1/121 268/1/121
f 269/1/122 271/1/122 272/1/122 270/1/122
f 271/1/123 273/1/123 274/1/123 272/1/123
f 273/1/124 275/1/124 276/1/124 274/1/124
f 275/1/125 277/1/125 278/1/125 276/1/125
f 277/1/126 279/1/126 280/1/126 278/1/126
f 279/1/127 281/1/127 282/1/127 280/1/127
f 281/1/128 283/1/128 284/1/128 282/1/128
f 283/1/129 287/1/129 288/1/129 284/1/129
f 287/1/130 285/1/130 286/1/130 288/1/130
f 191/1/131 192/1/131 226/1/131 228/1/131
